<?xml version="1.0" standalone="no"?>
<!DOCTYPE svg PUBLIC "-//W3C//DTD SVG 20010904//EN"
 "http://www.w3.org/TR/2001/REC-SVG-20010904/DTD/svg10.dtd">
<svg version="1.0" xmlns="http://www.w3.org/2000/svg"
 width="543.000000pt" height="589.000000pt" viewBox="0 0 543.000000 589.000000"
 preserveAspectRatio="xMidYMid meet">

<g transform="translate(0.000000,589.000000) scale(0.100000,-0.100000)"
fill="#000000" stroke="none">
<path d="M2515 5829 c-22 -4 -94 -15 -160 -24 -233 -30 -458 -101 -700 -220
-275 -136 -447 -257 -645 -454 -253 -253 -449 -557 -560 -866 -18 -49 -36 -99
-41 -110 -13 -32 -46 -164 -62 -250 -36 -189 -42 -256 -42 -480 0 -274 6 -346
46 -530 6 -27 12 -59 14 -70 26 -153 198 -555 291 -683 22 -29 62 -85 89 -123
323 -454 796 -793 1310 -938 267 -75 451 -96 765 -88 175 4 240 10 350 32 261
51 404 97 625 205 279 136 529 319 710 520 28 30 56 61 63 69 18 19 113 140
135 171 28 41 82 121 121 182 39 60 156 289 156 304 0 5 6 21 14 35 17 33 92
271 101 319 3 19 10 46 15 60 37 100 74 607 52 705 -6 28 -14 82 -17 120 -10
136 -45 296 -95 445 -67 197 -110 297 -188 435 -125 220 -230 356 -423 548
-93 92 -174 167 -180 167 -6 0 -26 12 -44 28 -45 38 -162 122 -170 122 -4 0
-21 10 -38 23 -38 26 -49 33 -197 107 -214 107 -491 192 -720 220 -52 6 -122
15 -156 21 -73 11 -363 10 -419 -2z m535 -54 c743 -99 1393 -537 1768 -1193
148 -259 251 -559 287 -837 3 -22 8 -65 12 -95 14 -101 7 -428 -11 -550 -39
-266 -114 -508 -228 -735 -340 -683 -994 -1173 -1738 -1305 -156 -28 -484 -38
-652 -21 -527 55 -1027 290 -1408 663 -96 94 -197 206 -214 236 -5 9 -15 22
-21 27 -6 6 -31 37 -55 70 -24 33 -49 65 -55 70 -60 55 -202 340 -274 547
-133 387 -160 869 -71 1258 11 47 22 96 25 110 12 55 69 220 107 310 280 659
836 1157 1525 1365 136 42 345 82 493 94 129 12 370 5 510 -14z"/>
<path d="M2744 5617 c6 -24 -33 -143 -86 -259 -24 -53 -54 -71 -74 -43 -20 27
-29 142 -13 162 13 15 9 16 -49 10 -34 -4 -74 -10 -88 -13 l-25 -6 20 -20 c12
-10 22 -31 22 -46 5 -102 7 -97 -30 -100 -77 -8 -144 125 -107 213 26 61 101
75 156 29 17 -15 33 -24 36 -21 4 3 -1 28 -10 55 l-17 49 -52 -4 c-181 -14
-252 -78 -228 -208 13 -68 40 -109 89 -134 59 -30 94 -33 188 -17 49 9 126 16
172 16 83 0 94 4 68 24 -12 9 -12 18 1 59 17 51 26 55 78 33 50 -21 76 -86 39
-100 -35 -13 0 -21 85 -18 l91 3 -18 27 c-24 36 -104 286 -97 305 7 18 -10 23
-94 26 -63 3 -64 2 -57 -22z m64 -144 c9 -30 1 -46 -12 -24 -3 5 -15 7 -26 4
-24 -6 -25 -4 -3 47 19 43 18 44 41 -27z"/>
<path d="M3023 5602 c9 -9 30 -55 47 -100 26 -66 31 -90 25 -120 -4 -20 -9
-48 -11 -62 -2 -14 -13 -33 -25 -42 -15 -13 -17 -19 -8 -22 21 -8 130 -26 152
-26 18 0 18 2 4 23 -12 19 -13 33 -5 73 5 27 10 55 11 63 0 7 35 49 77 92 43
44 71 80 64 83 -6 2 -32 8 -58 11 -45 7 -57 0 -36 -21 7 -7 -1 -24 -22 -53
l-31 -43 -19 48 c-18 46 -18 49 -2 61 10 7 15 16 11 19 -7 7 -138 33 -171 33
-18 1 -18 0 -3 -17z"/>
<path d="M1905 5483 c-73 -30 -71 -28 -51 -48 13 -14 16 -42 16 -171 0 -96 -4
-154 -10 -154 -5 0 -10 -7 -10 -16 0 -17 12 -15 78 13 34 14 34 15 13 29 -16
12 -21 26 -21 63 0 44 3 49 25 55 59 15 120 -21 111 -66 -3 -16 -2 -28 2 -28
16 0 157 59 159 67 2 4 -7 13 -19 18 -34 15 -209 227 -204 248 6 23 -15 21
-89 -10z m52 -142 l32 -39 -34 -4 c-30 -3 -35 -1 -36 17 -1 11 -3 30 -4 43 -3
31 5 28 42 -17z"/>
<path d="M3487 5473 c-8 -35 -181 -221 -222 -239 -27 -11 -28 -13 -10 -20 11
-4 35 -13 54 -20 45 -19 54 -18 41 6 -9 17 -5 26 28 61 l39 42 36 -37 c44 -43
50 -86 15 -110 -24 -17 -28 -15 103 -66 l50 -20 -7 22 c-13 42 2 315 19 336 5
7 8 14 6 16 -6 6 -131 56 -139 56 -4 0 -10 -12 -13 -27z m13 -133 l0 -51 -30
23 -30 22 27 28 c15 15 28 28 30 28 2 0 3 -23 3 -50z"/>
<path d="M1579 5326 c-120 -68 -149 -102 -149 -176 0 -71 45 -138 119 -175 53
-27 147 -17 201 20 23 17 53 37 66 45 19 12 23 21 18 45 -11 59 -12 70 -13 78
-2 20 -21 4 -21 -19 0 -14 -5 -35 -11 -47 -55 -108 -228 -51 -246 81 -5 36 -2
45 25 72 35 34 65 38 117 13 19 -9 38 -14 41 -10 6 6 -77 108 -86 106 -3 -1
-30 -15 -61 -33z"/>
<path d="M3822 5338 c1 -14 -26 -66 -71 -133 -75 -113 -98 -138 -112 -129 -5
3 -9 1 -9 -4 0 -9 70 -62 81 -62 3 0 6 13 6 29 0 43 132 234 133 194 0 -5 9
-64 19 -133 18 -115 18 -126 3 -143 -9 -10 -21 -16 -28 -13 -31 12 -20 -10 18
-35 l42 -28 11 33 c19 55 147 237 174 248 l24 9 -36 24 c-40 28 -62 32 -54 11
3 -7 -5 -30 -17 -51 -22 -36 -23 -37 -29 -14 -10 38 -8 99 4 99 25 0 -34 45
-148 114 -9 5 -12 0 -11 -16z"/>
<path d="M2575 5153 c-240 -21 -508 -105 -718 -225 -242 -138 -478 -367 -619
-599 -276 -455 -334 -998 -161 -1509 100 -296 317 -598 568 -791 309 -238 632
-354 1015 -366 264 -8 476 28 707 121 140 56 188 81 298 153 419 276 690 689
779 1188 7 34 17 158 20 243 4 84 -12 285 -30 377 -118 613 -573 1131 -1164
1325 -218 72 -474 102 -695 83z m323 -34 c589 -63 1091 -416 1360 -954 119
-240 172 -470 172 -756 0 -441 -157 -843 -457 -1168 -271 -294 -613 -475
-1018 -537 -149 -22 -426 -15 -569 16 -219 47 -426 132 -603 249 -193 126
-356 290 -488 486 -127 189 -213 401 -256 628 -27 141 -34 440 -14 562 25 149
38 204 76 316 163 493 566 899 1066 1072 237 83 489 113 731 86z"/>
<path d="M2182 4881 c-44 -45 -49 -73 -26 -140 28 -83 59 -112 122 -119 57 -5
62 0 37 48 -20 39 -53 60 -92 60 -18 0 -33 5 -33 10 0 6 5 10 10 10 6 0 18 16
27 35 15 32 15 39 2 82 l-15 48 -32 -34z"/>
<path d="M3262 4861 c-17 -54 -15 -66 14 -100 25 -30 25 -31 5 -31 -43 0 -86
-27 -109 -69 l-23 -41 54 0 c50 0 58 3 86 35 17 20 31 42 31 50 0 18 4 18 33
5 l22 -11 -22 16 c-18 14 -20 20 -11 46 5 16 7 40 4 53 -6 26 -52 86 -65 86
-4 0 -13 -17 -19 -39z"/>
<path d="M1968 4793 c-41 -47 -49 -102 -22 -141 13 -19 14 -26 2 -40 -12 -15
-11 -16 4 -4 14 11 17 10 23 -7 17 -54 85 -82 153 -63 23 7 23 7 -13 50 -31
35 -42 42 -74 42 -48 0 -54 6 -36 41 19 36 18 66 -3 107 -17 31 -19 32 -34 15z"/>
<path d="M3484 4759 c-15 -30 -15 -58 -1 -116 5 -21 2 -23 -35 -23 -34 0 -46
-6 -74 -36 -19 -19 -34 -39 -34 -44 0 -18 86 -22 118 -6 34 18 102 128 102
166 0 25 -36 90 -51 90 -4 0 -16 -14 -25 -31z"/>
<path d="M3400 4686 c0 -3 9 -10 20 -16 11 -6 20 -8 20 -6 0 3 -9 10 -20 16
-11 6 -20 8 -20 6z"/>
<path d="M1766 4639 c-18 -45 -10 -95 20 -120 13 -11 8 -20 -38 -66 -29 -29
-55 -53 -58 -53 -3 0 -4 16 -2 35 3 27 -3 46 -23 77 l-28 42 -14 -29 c-35 -66
-32 -119 11 -154 15 -13 15 -16 -6 -40 -22 -25 -22 -25 -1 -7 22 18 23 18 53
-8 34 -28 68 -32 119 -15 38 13 36 26 -10 57 -26 18 -43 23 -73 19 l-39 -6 61
61 61 62 28 -31 c16 -17 38 -33 50 -37 24 -8 103 10 103 23 0 4 -14 20 -30 36
-24 23 -41 30 -78 31 -34 2 -46 6 -43 16 15 46 12 89 -9 118 -12 16 -25 30
-30 30 -4 0 -15 -19 -24 -41z"/>
<path d="M3664 4625 c-23 -39 -25 -49 -15 -77 16 -46 15 -48 -37 -48 -42 0
-53 -5 -81 -34 l-33 -34 40 -13 c51 -15 87 -6 121 31 l27 30 63 -64 63 -63
-50 5 c-44 4 -53 1 -83 -26 l-33 -30 38 -16 c52 -22 67 -20 111 9 36 25 38 25
59 8 l21 -18 -20 23 c-16 19 -17 26 -7 40 7 9 20 31 29 49 15 30 15 35 -1 78
-10 25 -23 44 -30 42 -6 -2 -21 -19 -34 -38 -18 -26 -22 -43 -18 -69 l5 -34
-56 56 -56 56 22 27 c25 33 27 84 6 125 -9 17 -17 30 -20 30 -2 0 -16 -20 -31
-45z"/>
<path d="M1860 4549 c-35 -31 -35 -31 -3 -9 18 11 35 25 38 30 10 16 2 11 -35
-21z"/>
<path d="M3570 4576 c0 -2 8 -10 18 -17 15 -13 16 -12 3 4 -13 16 -21 21 -21
13z"/>
<path d="M3625 4530 c10 -11 20 -20 23 -20 3 0 -3 9 -13 20 -10 11 -20 20 -23
20 -3 0 3 -9 13 -20z"/>
<path d="M2669 4436 c-194 -101 -448 -155 -724 -156 -66 -1 -85 -3 -72 -11 9
-5 24 -24 33 -40 13 -26 14 -85 9 -482 -3 -249 -8 -499 -10 -557 -3 -58 -5
-242 -5 -409 -1 -415 -35 -384 432 -391 318 -5 327 -6 350 -27 23 -21 23 -21
47 -2 22 18 43 19 373 19 l350 0 34 34 c19 19 34 42 35 52 0 11 2 30 3 44 2
14 6 369 10 790 4 421 9 792 12 825 6 59 23 99 52 121 11 8 -13 13 -99 18
-290 18 -397 46 -735 192 -28 12 -35 10 -95 -20z m247 -60 c184 -76 337 -112
509 -122 61 -3 115 -7 122 -9 8 -3 8 -13 -2 -42 -11 -34 -25 -282 -25 -461 l0
-64 -782 6 c-431 3 -789 5 -797 6 -11 0 -12 41 -6 248 6 215 5 253 -9 286 -9
21 -16 40 -16 42 0 2 50 4 110 4 120 0 270 19 391 50 80 21 233 81 284 112 36
22 21 26 221 -56z m-527 -827 c77 -37 119 -49 287 -78 132 -24 281 -3 404 55
l79 37 20 -24 c11 -13 20 -28 21 -34 0 -5 -17 -50 -39 -100 -47 -111 -78 -227
-87 -326 -12 -138 26 -319 97 -460 l28 -56 -31 -31 -31 -31 -71 36 c-39 20
-93 42 -121 49 -62 17 -245 30 -245 18 0 -5 -31 -10 -69 -11 -98 -4 -153 -18
-254 -65 l-88 -42 -41 41 -40 40 25 44 c80 145 134 356 123 481 -10 113 -42
232 -96 357 l-32 73 33 34 c18 19 36 34 39 34 3 0 43 -18 89 -41z"/>
<path d="M2751 3305 l-2 -55 40 0 c25 0 41 5 41 12 0 9 3 9 12 0 7 -7 29 -12
50 -12 31 0 36 3 31 17 -5 12 -3 14 8 9 8 -5 1 3 -16 18 -16 14 -34 25 -40 25
-5 0 -4 -3 3 -6 6 -2 12 -9 12 -14 0 -6 -8 -5 -20 1 -11 6 -18 15 -15 20 3 4
-4 6 -14 3 -13 -3 -21 -16 -24 -37 -3 -28 -4 -28 -5 8 -2 32 -5 37 -19 32 -15
-5 -15 -4 1 9 16 12 17 15 4 15 -9 0 -23 2 -30 5 -11 5 -15 -7 -17 -50z"/>
<path d="M2546 3261 c-18 -7 -18 -8 -2 -14 9 -4 14 -11 11 -17 -11 -17 12 -11
36 11 23 19 23 20 2 10 -30 -15 -38 -14 -23 4 13 16 6 18 -24 6z"/>
<path d="M2720 3246 c0 -10 -10 -34 -21 -53 -18 -28 -20 -39 -10 -59 7 -15 7
-24 0 -24 -5 0 -14 10 -19 23 -6 16 -9 17 -9 5 -1 -9 -6 -20 -12 -24 -8 -5
-10 1 -7 18 3 19 1 25 -11 24 -11 -1 -16 8 -16 28 l1 28 -18 -22 c-25 -31 -22
-55 8 -79 l27 -21 -32 0 c-23 0 -31 4 -31 18 0 10 -11 29 -24 41 -23 22 -25
22 -50 6 -25 -16 -38 -34 -15 -19 12 7 79 -26 79 -39 0 -11 -63 2 -71 15 -3 5
-9 2 -13 -7 -4 -12 -14 -16 -31 -13 -14 3 -25 1 -25 -3 0 -5 45 -9 100 -9 55
0 100 -4 100 -9 0 -18 52 -9 57 10 13 50 23 -6 23 -133 l0 -140 38 6 c20 3 31
3 25 0 -7 -3 -13 -10 -13 -15 0 -6 8 -5 20 1 14 7 20 7 20 0 0 -7 6 -7 18 -1
9 6 30 13 47 16 18 4 50 28 82 63 53 56 62 75 43 87 -6 4 -7 11 -4 17 4 6 2 8
-4 4 -6 -3 -13 -2 -17 4 -3 5 3 10 14 10 11 0 29 12 40 27 20 24 20 27 5 45
-18 19 -78 25 -89 8 -3 -5 -25 -7 -51 -3 -34 4 -49 2 -64 -12 -19 -17 -19 -18
1 -46 11 -16 29 -29 40 -29 11 0 17 -4 14 -10 -3 -5 3 -10 14 -10 11 0 22 -4
25 -9 3 -5 -11 -9 -31 -9 -30 0 -44 -7 -71 -37 -21 -23 -32 -44 -29 -55 3 -11
-1 -21 -10 -24 -12 -5 -14 16 -11 134 2 77 -1 141 -6 143 -5 2 -4 13 3 24 17
33 13 78 -9 104 -17 22 -19 22 -20 5z m130 -196 c0 -5 -2 -10 -4 -10 -3 0 -8
5 -11 10 -3 6 -1 10 4 10 6 0 11 -4 11 -10z m19 -18 c17 2 28 1 25 -4 -9 -15
-61 -8 -75 10 -13 15 -12 16 3 3 10 -7 31 -11 47 -9z m65 -21 c3 -5 -3 -11
-14 -14 -20 -5 -26 3 -13 16 9 10 21 9 27 -2z"/>
<path d="M2894 3221 c3 -5 -1 -14 -9 -21 -12 -10 -15 -9 -15 4 0 9 -3 16 -7
16 -5 0 -8 -11 -8 -25 0 -32 7 -32 43 5 27 26 28 30 11 30 -11 0 -18 -4 -15
-9z"/>
<path d="M2968 3200 c-3 -17 0 -30 6 -30 6 0 11 14 11 30 0 17 -3 30 -6 30 -4
0 -9 -13 -11 -30z"/>
<path d="M2485 3210 c-3 -6 1 -7 9 -4 18 7 21 14 7 14 -6 0 -13 -4 -16 -10z"/>
<path d="M2816 3202 c-2 -4 -1 -14 3 -21 6 -9 10 -7 14 8 5 20 -7 29 -17 13z"/>
<path d="M2558 3033 c6 -2 18 -2 25 0 6 3 1 5 -13 5 -14 0 -19 -2 -12 -5z"/>
<path d="M2504 3008 l-19 -23 25 20 c14 11 27 21 29 22 2 2 0 3 -6 3 -5 0 -18
-10 -29 -22z"/>
<path d="M2601 3027 c2 -1 13 -9 24 -17 19 -14 19 -14 6 3 -7 9 -18 17 -24 17
-6 0 -8 -1 -6 -3z"/>
<path d="M2401 2984 c0 -11 3 -14 6 -6 3 7 2 16 -1 19 -3 4 -6 -2 -5 -13z"/>
<path d="M2529 2981 c-15 -12 -19 -22 -13 -32 10 -17 12 -89 2 -89 -4 0 -14
10 -22 22 -9 12 -16 18 -16 13 0 -5 9 -19 21 -31 16 -17 29 -21 62 -18 37 3
38 2 12 -5 l-30 -9 27 -1 c18 -1 38 9 56 27 15 15 18 19 7 10 -12 -10 -24 -18
-26 -18 -7 0 -3 71 6 92 9 23 1 34 -35 46 -24 9 -33 7 -51 -7z m21 -21 c0 -5
-4 -10 -10 -10 -5 0 -10 5 -10 10 0 6 5 10 10 10 6 0 10 -4 10 -10z m55 0 c3
-5 1 -10 -4 -10 -6 0 -11 5 -11 10 0 6 2 10 4 10 3 0 8 -4 11 -10z"/>
<path d="M2660 2942 l5 -47 3 39 c2 21 0 42 -5 47 -4 4 -6 -13 -3 -39z"/>
<path d="M2472 2935 c0 -16 2 -22 5 -12 2 9 2 23 0 30 -3 6 -5 -1 -5 -18z"/>
<path d="M1471 4369 c-6 -18 -11 -43 -11 -56 0 -32 26 -80 50 -93 11 -6 18
-15 15 -20 -3 -6 0 -7 8 -4 8 3 19 -2 26 -10 7 -8 28 -20 47 -26 29 -10 41 -9
80 10 43 21 44 23 28 41 -26 29 -79 43 -116 30 -37 -13 -38 -13 -37 -3 8 48
-4 95 -32 127 -17 19 -35 35 -39 35 -4 0 -13 -14 -19 -31z"/>
<path d="M3956 4345 c-33 -33 -37 -42 -35 -81 2 -24 0 -46 -3 -50 -4 -3 -22 0
-41 7 -30 11 -40 9 -81 -10 -25 -13 -46 -26 -46 -30 0 -4 13 -14 29 -24 39
-23 102 -22 133 3 19 15 28 16 37 7 10 -9 11 -8 6 5 -5 12 -1 20 9 24 8 3 25
21 37 40 17 27 20 44 15 77 -11 70 -19 74 -60 32z"/>
<path d="M1584 4278 l-19 -23 23 19 c21 18 27 26 19 26 -2 0 -12 -10 -23 -22z"/>
<path d="M3890 4246 c0 -2 8 -10 18 -17 15 -13 16 -12 3 4 -13 16 -21 21 -21
13z"/>
<path d="M1350 4156 c0 -51 2 -57 39 -88 38 -32 39 -33 24 -61 -8 -16 -12 -31
-10 -33 2 -3 10 9 17 26 14 34 17 35 44 15 28 -21 83 -18 122 6 19 11 34 24
34 29 0 4 -19 15 -41 24 -41 17 -93 14 -104 -5 -13 -19 -25 -8 -14 12 6 12 7
19 1 15 -5 -3 -13 10 -16 29 -5 23 -18 43 -40 60 -48 37 -56 33 -56 -29z"/>
<path d="M4085 4172 c-43 -27 -53 -42 -57 -87 -2 -34 -6 -39 -23 -37 -11 2
-34 6 -52 9 -32 5 -103 -12 -103 -26 0 -10 81 -61 97 -61 8 0 30 7 49 15 20 8
40 12 45 9 5 -3 7 1 4 8 -2 7 10 22 28 33 44 28 62 68 51 116 l-9 39 -30 -18z"/>
<path d="M1504 4168 c-4 -7 -14 -24 -22 -38 -14 -24 -13 -24 3 -5 20 24 37 55
31 55 -3 0 -8 -6 -12 -12z"/>
<path d="M3980 4110 c6 -11 13 -20 16 -20 2 0 0 9 -6 20 -6 11 -13 20 -16 20
-2 0 0 -9 6 -20z"/>
<path d="M1257 3996 c-10 -26 5 -84 27 -105 27 -25 122 -61 163 -61 30 0 93
41 93 61 0 13 -76 30 -104 23 -13 -3 -32 -14 -42 -25 -22 -25 -29 -24 -31 4
-2 42 -23 77 -55 97 -39 24 -44 24 -51 6z"/>
<path d="M4163 3963 c-34 -17 -53 -49 -53 -91 0 -21 -2 -24 -10 -12 -5 8 -10
11 -10 6 0 -4 -12 -1 -26 9 -20 13 -40 16 -76 13 -26 -3 -51 -8 -55 -12 -11
-10 48 -65 77 -71 27 -6 124 24 167 52 23 15 43 61 43 99 0 28 -12 29 -57 7z"/>
<path d="M4060 3945 c0 -5 5 -17 10 -25 5 -8 10 -10 10 -5 0 6 -5 17 -10 25
-5 8 -10 11 -10 5z"/>
<path d="M1341 3824 c0 -11 3 -14 6 -6 3 7 2 16 -1 19 -3 4 -6 -2 -5 -13z"/>
<path d="M1180 3787 c0 -29 36 -87 58 -95 15 -6 36 -13 47 -18 27 -10 44 -14
86 -21 32 -5 42 -1 75 30 22 19 36 39 32 42 -4 4 -27 10 -51 12 -38 5 -48 1
-80 -26 l-35 -32 -7 29 c-8 40 -44 72 -89 79 -20 3 -36 3 -36 0z"/>
<path d="M4201 3744 c-13 -9 -30 -32 -38 -52 l-14 -34 -28 26 c-22 21 -37 26
-79 26 -61 0 -66 -13 -23 -54 23 -22 39 -28 70 -28 23 0 45 3 50 7 5 3 12 -5
14 -17 4 -20 4 -19 6 5 1 20 6 27 21 27 49 0 100 49 100 95 0 20 -49 19 -79
-1z"/>
<path d="M4131 3724 c0 -11 3 -14 6 -6 3 7 2 16 -1 19 -3 4 -6 -2 -5 -13z"/>
<path d="M1291 3614 c0 -11 3 -14 6 -6 3 7 2 16 -1 19 -3 4 -6 -2 -5 -13z"/>
<path d="M1145 3563 c11 -47 33 -72 72 -82 21 -6 44 -11 51 -11 34 0 -11 94
-54 110 -14 6 -37 10 -51 10 -22 0 -24 -3 -18 -27z"/>
<path d="M1282 3550 c0 -14 2 -19 5 -12 2 6 2 18 0 25 -3 6 -5 1 -5 -13z"/>
<path d="M4162 3540 c0 -19 2 -27 5 -17 2 9 2 25 0 35 -3 9 -5 1 -5 -18z"/>
<path d="M1328 3533 c-33 -37 -41 -60 -22 -67 28 -11 69 -6 92 10 19 13 52 63
52 79 0 3 -22 5 -48 5 -40 0 -53 -5 -74 -27z"/>
<path d="M4237 3549 c-10 -6 -31 -29 -47 -50 l-29 -40 -16 30 c-8 17 -24 35
-34 41 -21 11 -101 14 -101 4 0 -3 7 -21 16 -40 26 -54 58 -66 148 -54 42 5
86 15 97 21 19 10 49 64 49 89 0 13 -60 12 -83 -1z"/>
<path d="M1273 3390 c0 -25 2 -35 4 -22 2 12 2 32 0 45 -2 12 -4 2 -4 -23z"/>
<path d="M1130 3375 c0 -16 33 -66 52 -79 27 -19 177 -22 210 -5 17 9 48 64
48 85 0 4 -21 4 -47 1 -48 -5 -93 -40 -93 -73 0 -8 -4 -14 -10 -14 -5 0 -10 7
-10 15 0 19 -26 48 -57 64 -22 11 -93 16 -93 6z"/>
<path d="M4015 3338 c18 -60 55 -88 115 -88 16 0 31 -6 33 -12 4 -10 6 -10 6
0 1 7 15 12 36 12 51 0 84 19 106 62 l19 38 -49 0 c-44 0 -54 -4 -89 -39 l-39
-38 -10 28 c-12 32 -63 59 -108 59 -23 0 -25 -3 -20 -22z"/>
<path d="M1281 3234 c0 -11 3 -14 6 -6 3 7 2 16 -1 19 -3 4 -6 -2 -5 -13z"/>
<path d="M1390 3213 c-28 -10 -59 -46 -65 -75 l-7 -29 -34 35 c-31 32 -41 36
-84 36 -55 0 -62 -10 -32 -46 30 -38 59 -46 129 -39 105 10 131 28 147 98 6
23 3 27 -16 26 -13 0 -30 -3 -38 -6z"/>
<path d="M4152 3185 c0 -16 2 -22 5 -12 2 9 2 23 0 30 -3 6 -5 -1 -5 -18z"/>
<path d="M4005 3169 c16 -76 50 -97 164 -101 65 -3 72 -1 100 26 38 37 39 55
4 58 -55 3 -76 -2 -99 -23 -23 -21 -24 -21 -25 -3 -1 15 -3 13 -8 -6 -8 -24
-8 -24 -24 13 -16 36 -34 48 -94 63 -24 6 -25 5 -18 -27z"/>
<path d="M1291 3164 c0 -11 3 -14 6 -6 3 7 2 16 -1 19 -3 4 -6 -2 -5 -13z"/>
<path d="M1441 3056 c-39 -14 -81 -58 -81 -87 0 -20 0 -20 -21 0 -38 35 -75
45 -120 32 l-39 -12 17 -24 c25 -34 79 -58 111 -50 15 4 43 9 62 12 71 10 116
58 108 115 -3 24 -5 24 -37 14z"/>
<path d="M3969 3043 c-3 -25 4 -80 13 -96 5 -10 26 -26 46 -34 20 -8 40 -20
44 -27 5 -7 8 -7 8 0 0 6 22 9 60 6 55 -4 61 -2 90 26 36 36 37 48 8 56 -41
11 -83 6 -108 -11 -37 -26 -46 -24 -59 12 -8 23 -23 38 -49 50 -20 10 -40 20
-44 22 -5 2 -8 1 -9 -4z"/>
<path d="M4121 3034 c0 -11 3 -14 6 -6 3 7 2 16 -1 19 -3 4 -6 -2 -5 -13z"/>
<path d="M1496 2870 c-34 -22 -55 -55 -56 -87 0 -16 -5 -21 -15 -17 -8 4 -12
11 -8 17 3 5 2 7 -4 4 -6 -4 -24 -1 -41 5 -24 9 -39 9 -71 -2 -48 -15 -48 -26
0 -58 28 -19 42 -22 74 -17 22 4 48 7 58 8 9 1 17 4 17 7 0 3 16 12 35 19 41
14 65 54 65 106 0 40 -11 43 -54 15z"/>
<path d="M3890 2824 c0 -37 5 -51 29 -75 16 -16 37 -29 45 -29 19 0 20 -13 5
-43 -10 -21 -9 -21 5 -3 8 10 17 23 18 28 2 5 21 2 42 -7 46 -19 73 -14 116
22 l32 26 -27 15 c-40 20 -90 19 -115 -3 -12 -11 -20 -13 -20 -6 0 7 -4 9 -10
6 -5 -3 -10 1 -10 9 0 31 -23 64 -60 85 -21 11 -40 21 -44 21 -3 0 -6 -21 -6
-46z"/>
<path d="M4056 2855 c-9 -26 -7 -32 5 -12 6 10 9 21 6 23 -2 3 -7 -2 -11 -11z"/>
<path d="M4036 2803 c-6 -14 -5 -15 5 -6 7 7 10 15 7 18 -3 3 -9 -2 -12 -12z"/>
<path d="M1578 2717 c-35 -30 -50 -61 -42 -91 9 -39 -2 -47 -42 -30 -38 16
-90 11 -120 -11 -16 -11 -13 -15 22 -39 44 -30 76 -33 118 -11 16 9 36 13 43
10 8 -2 11 0 8 5 -4 6 10 25 29 44 30 28 36 40 36 74 0 42 -8 72 -19 72 -3 0
-18 -10 -33 -23z"/>
<path d="M3809 2693 c-19 -51 -3 -89 62 -143 76 -63 106 -67 173 -23 l39 25
-34 15 c-40 17 -105 19 -124 3 -16 -13 -25 7 -25 57 0 26 -8 42 -31 64 -39 36
-47 36 -60 2z"/>
<path d="M3935 2624 c-9 -15 -12 -23 -6 -20 11 7 35 46 28 46 -3 0 -12 -12
-22 -26z"/>
<path d="M1688 2548 c-26 -28 -29 -38 -25 -74 3 -28 1 -41 -7 -40 -88 19 -86
19 -128 -9 l-42 -28 35 -18 c62 -33 90 -25 177 48 46 39 52 49 52 83 0 45 -8
70 -22 70 -6 0 -24 -14 -40 -32z"/>
<path d="M3690 2545 c-13 -33 -13 -71 0 -95 16 -30 130 -110 156 -110 14 0 41
7 61 15 30 13 34 17 22 31 -23 28 -70 46 -106 41 -31 -5 -33 -4 -21 11 9 13 7
12 -10 -2 l-22 -19 2 40 c1 42 -15 74 -51 100 -20 13 -22 12 -31 -12z"/>
<path d="M3841 2497 c-29 -35 -30 -38 -7 -17 24 22 52 60 44 60 -2 0 -18 -19
-37 -43z"/>
<path d="M1595 2500 c10 -11 20 -20 23 -20 3 0 -3 9 -13 20 -10 11 -20 20 -23
20 -3 0 3 -9 13 -20z"/>
<path d="M1620 2466 c0 -2 8 -10 18 -17 15 -13 16 -12 3 4 -13 16 -21 21 -21
13z"/>
<path d="M1815 2418 c-23 -27 -26 -39 -23 -80 4 -37 2 -48 -8 -44 -47 18 -81
16 -113 -6 -44 -30 -48 -42 -16 -56 46 -21 91 -15 128 18 26 23 36 27 46 17
10 -9 11 -9 6 4 -3 9 3 23 14 34 29 25 36 76 17 114 -9 17 -18 31 -20 31 -2 0
-16 -14 -31 -32z"/>
<path d="M3566 2413 c-23 -45 -20 -87 9 -121 13 -16 21 -33 17 -37 -4 -5 -1
-5 6 -1 7 4 27 -5 49 -23 21 -17 49 -31 62 -31 29 0 91 21 91 31 0 4 -14 19
-32 34 -29 25 -37 27 -86 21 l-53 -6 60 50 c34 28 61 53 61 56 0 3 -24 -15
-54 -40 -29 -25 -55 -46 -57 -46 -3 0 -3 17 -1 38 3 29 -3 44 -26 72 l-29 34
-17 -31z"/>
<path d="M1720 2368 c41 -45 50 -53 50 -45 0 2 -21 23 -47 47 l-48 45 45 -47z"/>
<path d="M1951 2319 c-23 -37 -27 -70 -11 -100 6 -10 7 -19 3 -20 -4 0 -28 -2
-53 -4 -35 -3 -51 -10 -73 -35 -32 -36 -29 -45 13 -53 37 -8 77 6 111 40 26
24 28 24 55 8 l29 -17 -23 19 -24 19 22 37 c24 41 21 76 -9 116 l-19 25 -21
-35z"/>
<path d="M3430 2308 c-26 -42 -25 -79 1 -112 21 -26 21 -28 3 -42 -18 -14 -18
-15 3 -5 18 9 26 6 56 -24 28 -28 42 -35 74 -34 21 0 46 4 57 8 17 7 16 10
-14 44 -25 29 -40 37 -65 37 -56 0 -64 7 -53 44 8 27 6 40 -11 74 -12 23 -24
42 -26 42 -3 0 -14 -15 -25 -32z"/>
<path d="M1850 2256 c0 -2 8 -10 18 -17 15 -13 16 -12 3 4 -13 16 -21 21 -21
13z"/>
<path d="M2100 2234 c-14 -37 -12 -87 5 -110 16 -21 19 -35 8 -33 -5 1 -27 1
-50 0 -34 -1 -51 -8 -84 -38 -36 -33 -39 -38 -22 -44 28 -11 102 -10 124 2 26
13 88 110 95 149 5 23 0 38 -20 65 -32 42 -43 44 -56 9z"/>
<path d="M3278 2226 c-38 -47 -36 -85 6 -150 43 -67 70 -86 121 -86 61 0 73
12 46 47 -26 33 -44 41 -88 42 -58 2 -64 8 -41 47 21 36 20 84 -5 117 -11 16
-15 14 -39 -17z"/>
<path d="M3542 2226 c-46 -33 -53 -43 -14 -20 19 10 38 25 44 32 15 17 8 14
-30 -12z"/>
<path d="M2258 2158 c-2 -61 3 -83 30 -112 l27 -29 -30 6 c-45 8 -99 -24 -118
-70 l-15 -38 44 -3 c24 -2 53 2 65 8 24 13 89 149 89 186 0 28 -49 84 -74 84
-11 0 -16 -10 -18 -32z"/>
<path d="M3134 2180 c-25 -10 -64 -57 -64 -77 0 -26 60 -160 80 -178 11 -10
40 -20 65 -22 40 -5 45 -3 45 14 0 30 -43 88 -68 91 -12 2 -19 8 -16 14 6 10
-12 6 -56 -10 -8 -3 0 12 18 33 23 29 32 49 31 75 -1 53 -10 69 -35 60z"/>
<path d="M2030 2136 c0 -3 14 -12 30 -21 17 -9 30 -13 30 -11 0 3 -13 12 -30
21 -16 9 -30 13 -30 11z"/>
<path d="M2445 2118 c-15 -67 -9 -101 25 -138 29 -31 29 -32 6 -26 -13 3 -32
9 -43 12 -15 5 -16 4 -3 -5 13 -9 12 -12 -7 -17 -13 -4 -37 -25 -53 -48 l-31
-41 58 -3 c54 -3 60 -1 86 28 15 16 27 37 27 45 0 8 4 15 8 15 5 0 9 6 10 13
1 6 4 27 8 44 10 50 -2 78 -46 113 l-39 31 -6 -23z"/>
<path d="M2915 2095 c-35 -32 -37 -37 -31 -82 8 -70 9 -73 16 -73 3 0 12 -16
19 -35 7 -19 21 -40 33 -46 22 -12 104 -16 115 -6 3 4 -7 25 -22 47 -21 31
-38 43 -70 51 l-42 11 23 23 c29 29 38 64 30 110 -9 44 -25 44 -71 0z"/>
<path d="M2150 2075 c0 -7 61 -37 66 -33 2 3 -12 12 -31 21 -19 9 -35 15 -35
12z"/>
<path d="M3220 2050 c-8 -5 -10 -10 -5 -10 6 0 17 5 25 10 8 5 11 10 5 10 -5
0 -17 -5 -25 -10z"/>
<path d="M2548 1933 c7 -3 16 -2 19 1 4 3 -2 6 -13 5 -11 0 -14 -3 -6 -6z"/>
<path d="M2838 1933 c7 -3 16 -2 19 1 4 3 -2 6 -13 5 -11 0 -14 -3 -6 -6z"/>
<path d="M2623 1918 c20 -7 37 -14 37 -18 0 -3 -30 -18 -66 -34 -51 -22 -62
-31 -50 -38 11 -6 37 3 86 28 l71 37 78 -40 c53 -28 82 -38 92 -32 10 6 -6 17
-58 41 -40 18 -73 36 -73 39 0 3 19 11 43 17 l42 11 -50 -6 c-64 -9 -89 -9
-145 -1 l-45 7 38 -11z"/>
<path d="M1048 4880 c-85 -96 -104 -126 -74 -114 9 3 52 -28 108 -77 51 -46
101 -90 111 -98 9 -9 17 -23 17 -33 0 -30 16 -21 70 40 49 54 50 57 27 60 -28
4 -137 97 -137 117 0 25 42 46 77 39 42 -8 42 -1 0 24 -19 11 -46 28 -62 38
l-28 18 6 -24 c4 -17 0 -33 -13 -50 l-19 -25 -27 26 c-23 23 -24 29 -13 48 20
31 76 54 115 48 19 -3 34 -3 34 1 0 6 -93 63 -101 61 -2 0 -43 -45 -91 -99z"/>
<path d="M4360 4922 c0 -26 -226 -195 -252 -189 -10 3 -18 1 -18 -3 0 -18 146
-195 179 -217 23 -16 49 -23 80 -23 138 0 217 157 146 288 -28 52 -108 155
-125 160 -6 2 -10 -5 -10 -16z m84 -138 c12 -31 6 -77 -16 -112 -26 -42 -102
-92 -140 -92 -28 0 -78 38 -78 59 0 13 198 161 215 161 7 0 16 -7 19 -16z"/>
<path d="M880 4604 c-73 -32 -121 -103 -122 -183 -1 -189 265 -252 351 -83 27
54 34 95 21 141 -29 108 -150 168 -250 125z m77 -99 c112 -47 152 -128 82
-166 -56 -30 -219 60 -219 121 0 57 60 77 137 45z"/>
<path d="M4638 4542 c-6 -23 -254 -155 -279 -149 -11 3 -19 2 -19 -2 0 -4 30
-63 66 -130 58 -107 69 -122 88 -118 11 3 42 9 69 12 57 9 72 25 23 25 -45 0
-75 12 -108 43 -46 43 -38 70 35 110 55 31 63 33 75 19 15 -19 16 -56 2 -83
-15 -28 -4 -24 51 19 52 40 61 53 30 45 -13 -3 -25 4 -37 22 -17 26 -17 28 1
41 33 24 55 17 72 -23 14 -35 14 -42 0 -83 -9 -24 -15 -46 -13 -47 2 -2 24 15
49 38 l47 40 -19 27 c-10 15 -40 66 -65 114 -50 94 -61 107 -68 80z"/>
<path d="M581 4044 c-12 -54 -8 -82 8 -55 10 16 35 4 71 -34 28 -30 21 -39
-39 -50 -27 -5 -38 -3 -48 11 -7 10 -14 16 -16 13 -7 -9 -47 -172 -43 -176 2
-3 15 2 28 10 12 9 56 25 97 37 68 20 80 21 135 9 36 -8 70 -22 83 -35 l23
-23 10 40 c5 21 15 57 21 80 12 46 7 58 -15 40 -12 -10 -29 -10 -82 2 -58 14
-74 23 -120 68 -29 28 -60 67 -70 85 -10 19 -21 34 -25 34 -3 0 -11 -25 -18
-56z"/>
<path d="M4684 3925 c-43 -19 -91 -77 -104 -125 -23 -86 21 -184 102 -226 37
-19 115 -17 164 5 128 58 138 236 19 327 -44 33 -130 43 -181 19z m191 -120
c14 -13 25 -29 25 -35 0 -49 -93 -100 -180 -100 -61 0 -72 5 -89 38 -29 55 64
119 177 121 33 1 49 -5 67 -24z"/>
<path d="M535 3691 l-30 -6 -6 -90 c-4 -50 -7 -118 -8 -151 l-1 -61 57 -12
c51 -10 88 -6 54 7 -28 10 -61 51 -61 77 l0 26 138 -7 c107 -5 140 -10 149
-22 7 -9 16 -12 20 -9 9 9 17 167 9 167 -4 0 -15 -7 -24 -16 -14 -15 -34 -16
-151 -10 -74 3 -136 8 -139 11 -11 11 23 67 49 81 16 8 29 17 29 19 0 7 -47 4
-85 -4z"/>
<path d="M4608 3414 c-3 -73 5 -101 22 -73 10 16 127 16 142 1 7 -7 -5 -21
-38 -42 -60 -38 -90 -46 -109 -30 -13 11 -15 8 -16 -16 0 -16 -3 -49 -5 -73
-3 -24 -3 -50 1 -59 5 -13 9 -12 28 5 12 11 38 26 57 33 19 8 54 26 78 40 l43
27 34 -34 c36 -36 69 -42 100 -19 18 13 20 30 24 165 2 83 0 151 -4 151 -3 0
-14 -7 -23 -16 -14 -15 -35 -16 -161 -11 -88 4 -147 10 -149 16 -10 31 -21 2
-24 -65z m320 -92 c8 -53 -52 -71 -87 -26 -35 44 -28 55 32 52 46 -3 52 -6 55
-26z"/>
<path d="M820 3315 c-33 -17 -286 -30 -295 -16 -16 27 -25 5 -25 -62 0 -82 5
-94 31 -72 23 22 291 34 314 15 13 -11 15 -3 15 69 0 44 -3 81 -7 80 -5 -1
-19 -7 -33 -14z"/>
<path d="M750 3103 c0 -5 16 -15 35 -22 44 -15 69 -52 67 -97 -3 -70 -43 -114
-124 -135 -64 -17 -113 5 -129 60 -12 39 -11 43 20 87 18 25 31 47 28 50 -3 3
-32 -8 -64 -25 l-60 -30 19 -77 c23 -91 36 -120 73 -154 23 -21 36 -25 93 -25
49 0 78 6 107 21 91 47 128 159 86 257 -12 27 -21 57 -21 68 0 16 -7 19 -49
19 -27 0 -56 3 -65 6 -9 3 -16 2 -16 -3z"/>
<path d="M4623 3053 c-127 -82 -115 -272 22 -334 150 -69 307 81 254 242 -37
108 -178 156 -276 92z m160 -97 c76 -28 99 -75 55 -116 -17 -15 -35 -20 -82
-20 -79 0 -127 14 -156 45 -20 21 -22 30 -14 52 5 15 21 33 34 40 33 17 115
16 163 -1z"/>
<path d="M935 2351 c-78 -32 -92 -148 -24 -205 74 -63 189 -5 189 94 0 84 -87
142 -165 111z"/>
<path d="M4378 2324 c-53 -28 -72 -97 -43 -158 46 -96 182 -82 216 22 33 100
-78 188 -173 136z"/>
<path d="M1373 1823 l-86 -116 23 -19 c27 -22 20 -26 70 42 l18 24 38 -26 c51
-34 76 -41 108 -29 35 14 68 69 61 101 -5 23 -120 139 -138 140 -4 0 -46 -52
-94 -117z m165 -33 c-4 -31 -38 -39 -74 -16 -29 20 -30 26 -3 60 l20 26 30
-22 c22 -16 29 -29 27 -48z"/>
<path d="M3904 1881 c-43 -26 -64 -59 -64 -98 0 -69 70 -94 151 -52 43 22 66
20 75 -6 14 -36 -64 -83 -92 -55 -7 7 -18 2 -33 -14 l-22 -24 22 -16 c50 -34
130 -8 169 56 28 46 25 79 -8 111 -34 32 -70 34 -131 7 -24 -11 -49 -20 -57
-20 -25 0 -26 22 -3 46 18 19 31 24 50 20 19 -3 32 1 45 15 18 20 18 21 -1 35
-26 19 -64 17 -101 -5z"/>
<path d="M1621 1633 c-59 -118 -62 -128 -45 -140 29 -21 39 -16 65 37 13 27
28 50 32 50 14 0 87 -40 87 -48 0 -4 -12 -29 -26 -56 -25 -47 -26 -50 -8 -63
10 -7 23 -13 30 -13 7 0 40 57 75 126 59 120 61 128 44 140 -27 20 -30 18 -59
-31 -15 -25 -31 -45 -35 -45 -5 0 -27 10 -49 23 l-40 22 24 45 c13 25 23 48
24 51 0 5 -44 29 -53 29 -1 0 -31 -57 -66 -127z"/>
<path d="M3653 1709 l-92 -50 61 -117 c33 -64 65 -123 70 -129 8 -10 31 -2 97
33 104 55 106 56 92 83 -11 20 -12 20 -78 -16 l-66 -36 -19 23 c-25 31 -20 40
35 71 64 35 70 41 54 63 -13 17 -17 17 -76 -14 -35 -17 -64 -30 -65 -28 0 2
-7 13 -13 25 -12 21 -9 24 52 58 36 20 65 40 65 45 0 15 -12 40 -19 39 -3 0
-47 -23 -98 -50z"/>
<path d="M3452 1610 l-22 -9 30 -82 c16 -46 29 -84 27 -85 -1 -1 -38 26 -81
62 -83 67 -92 72 -119 52 -15 -12 -13 -24 30 -146 45 -131 47 -133 72 -127 14
4 27 8 29 9 1 2 -11 40 -27 84 -16 45 -27 82 -25 82 2 0 37 -27 77 -60 72 -59
97 -69 126 -51 12 7 6 30 -28 128 -24 65 -45 126 -48 136 -6 19 -9 20 -41 7z"/>
<path d="M1932 1485 c-29 -69 -52 -130 -52 -135 0 -13 43 -30 52 -21 3 3 30
62 58 130 49 118 51 125 34 138 -10 7 -23 13 -29 13 -6 0 -35 -56 -63 -125z"/>
<path d="M2120 1536 c-18 -42 -71 -238 -68 -248 4 -11 148 -57 179 -58 19 0
33 39 16 45 -7 2 -38 11 -69 20 -32 9 -58 17 -58 18 0 1 14 49 30 107 17 58
30 110 30 116 0 7 -12 14 -26 17 -19 3 -28 -1 -34 -17z"/>
<path d="M3139 1512 c-15 -6 -14 -18 11 -117 15 -60 31 -122 34 -137 4 -18 13
-28 24 -28 41 1 42 11 9 150 -33 137 -40 148 -78 132z"/>
<path d="M2405 1478 c-6 -17 -55 -256 -55 -267 0 -5 13 -11 30 -13 33 -5 25
-27 69 189 l18 91 -21 6 c-31 8 -36 7 -41 -6z"/>
<path d="M2867 1471 c-21 -3 -38 -9 -39 -14 -2 -12 23 -250 28 -268 3 -11 13
-14 35 -11 l30 4 -6 53 -7 53 48 8 c53 8 104 48 104 82 0 33 -21 82 -40 92
-20 11 -91 11 -153 1z m111 -53 c7 -7 12 -22 12 -35 0 -18 -8 -24 -41 -33 -23
-6 -42 -10 -44 -8 -12 12 -8 70 5 78 21 13 54 12 68 -2z"/>
<path d="M2536 1383 c-4 -49 -9 -114 -12 -146 l-5 -58 33 3 c32 3 33 4 36 56
l3 52 55 0 c71 0 91 11 105 59 9 30 9 44 -2 67 -20 40 -53 54 -136 54 l-71 0
-6 -87z m138 24 c11 -8 17 -23 14 -38 -2 -20 -9 -25 -42 -27 -44 -4 -54 6 -48
48 4 25 9 30 31 30 15 0 35 -6 45 -13z"/>
<path d="M490 2063 c0 -5 9 -96 20 -203 11 -107 20 -201 20 -207 0 -16 -85
-17 -184 -3 -121 18 -126 6 -50 -112 52 -79 106 -144 242 -292 94 -103 100
-111 86 -130 -22 -32 -18 -116 9 -154 38 -55 236 -214 397 -319 212 -139 480
-271 700 -345 113 -38 250 -76 300 -84 25 -3 52 -10 61 -15 8 -4 107 -19 220
-33 262 -33 546 -35 779 -7 85 11 166 22 180 25 208 45 368 88 485 131 39 15
78 29 88 32 45 14 257 117 358 173 250 140 567 375 598 444 8 20 12 52 8 92
l-5 62 80 78 c81 80 167 181 224 264 37 54 114 178 114 185 0 3 -68 5 -150 5
l-150 0 7 190 c3 112 2 190 -3 190 -5 0 -22 -19 -38 -43 -183 -264 -385 -492
-551 -621 -99 -78 -104 -94 -48 -174 21 -31 32 -56 27 -60 -284 -197 -499
-308 -774 -402 -52 -17 -122 -38 -155 -45 -33 -7 -91 -20 -130 -29 -213 -47
-253 -51 -535 -51 -187 0 -299 4 -350 13 -173 32 -237 44 -265 52 -363 105
-580 204 -846 387 -58 40 -111 79 -118 86 -9 11 -3 24 24 58 19 24 35 50 35
57 0 33 -37 76 -132 153 -217 177 -367 347 -493 558 -33 56 -66 101 -72 101
-7 0 -13 -3 -13 -7z m147 -242 c99 -143 225 -277 394 -422 118 -101 147 -134
134 -147 -2 -3 -46 27 -97 65 -115 87 -157 113 -184 113 -16 0 -48 -35 -119
-130 -54 -71 -102 -130 -106 -130 -11 0 -186 189 -257 277 -36 45 -79 105 -94
132 l-29 50 141 -6 142 -6 -6 44 c-7 51 -26 277 -25 299 0 11 3 11 12 -4 7
-10 49 -71 94 -135z m4264 -26 c-4 -88 -6 -163 -4 -168 2 -4 68 -4 145 -1
l141 7 -23 -39 c-78 -127 -193 -274 -294 -373 -63 -62 -77 -72 -90 -62 -8 7
-56 66 -107 132 -61 80 -98 119 -111 119 -29 0 -55 -16 -151 -96 -87 -72 -110
-84 -122 -64 -13 20 7 46 77 100 151 117 348 333 491 537 28 40 52 71 53 70 2
-2 -1 -75 -5 -162z m-3978 -412 c18 -9 73 -48 124 -86 90 -70 91 -71 75 -94
-10 -12 -21 -23 -26 -23 -7 0 -100 78 -177 150 -16 15 -39 53 -39 64 0 9 9 7
43 -11z m3647 -16 c0 -7 -6 -20 -12 -29 -19 -23 -198 -178 -206 -178 -8 1 -46
50 -40 53 56 30 89 53 148 105 67 59 110 78 110 49z m-3604 -123 c312 -276
709 -489 1099 -589 645 -165 1328 -81 1916 236 200 107 501 319 582 408 l34
38 91 -121 c139 -183 137 -216 -14 -340 -134 -110 -232 -179 -379 -266 -304
-182 -547 -284 -862 -361 -218 -53 -400 -78 -623 -85 -710 -24 -1383 197
-1955 641 -164 127 -225 193 -225 244 0 10 50 87 112 169 l112 150 22 -31 c12
-18 53 -59 90 -93z"/>
<path d="M1087 968 c-21 -6 -56 -27 -78 -48 -34 -32 -39 -43 -39 -80 0 -37 5
-48 40 -82 62 -58 141 -93 163 -72 4 4 -25 37 -63 74 -38 36 -72 79 -75 93 -8
32 15 74 48 86 51 19 133 -37 124 -86 -6 -30 1 -29 41 8 36 34 40 49 15 71
-44 38 -115 53 -176 36z"/>
<path d="M4348 959 c-10 -5 -18 -16 -18 -24 0 -9 -6 -12 -15 -9 -13 5 -45 -16
-45 -31 0 -3 9 -16 21 -28 12 -12 35 -46 51 -74 35 -62 36 -63 65 -52 l22 8
-18 42 c-19 42 -19 42 1 59 17 13 20 23 14 53 -4 20 -16 43 -29 52 -25 18 -26
18 -49 4z m19 -64 c9 -25 -4 -29 -17 -6 -7 15 -7 21 0 21 6 0 13 -7 17 -15z"/>
<path d="M4174 926 c-9 -23 13 -45 37 -39 14 4 19 12 17 27 -4 26 -45 35 -54
12z"/>
<path d="M1294 875 c-8 -21 2 -45 19 -45 20 0 40 27 33 45 -7 19 -45 20 -52 0z"/>
<path d="M4222 865 c-12 -14 -22 -29 -22 -33 0 -4 -15 -6 -34 -4 -27 3 -35 0
-38 -15 -4 -14 -9 -10 -23 20 -22 43 -25 44 -50 17 -17 -19 -17 -21 9 -71 14
-29 25 -54 23 -56 -10 -9 -37 11 -37 28 0 23 1 23 -42 5 -43 -18 -60 -39 -60
-71 0 -14 -2 -25 -4 -25 -5 0 -44 87 -44 99 0 15 -6 14 -35 -5 -20 -13 -22
-19 -13 -39 8 -19 6 -27 -11 -44 -12 -12 -21 -33 -21 -48 l0 -27 -20 22 c-24
26 -43 28 -60 7 -7 -8 -16 -12 -21 -9 -5 3 -20 -6 -33 -19 -14 -14 -29 -21
-37 -17 -23 12 -75 -8 -88 -33 -11 -20 -10 -30 6 -63 15 -32 24 -40 50 -42 23
-2 35 3 47 20 19 27 23 59 4 40 -20 -20 -32 -13 -13 8 24 27 30 25 45 -10 14
-35 13 -34 49 -15 16 8 31 11 35 8 9 -9 35 28 36 51 0 18 1 18 18 3 27 -25 49
-21 56 9 6 24 8 25 20 9 12 -17 14 -17 38 -1 25 16 25 19 12 44 -18 35 -18 43
1 36 8 -4 15 -15 15 -26 0 -18 5 -20 31 -14 44 8 89 43 89 69 1 21 1 21 15 3
13 -18 16 -18 40 -2 24 16 25 18 9 47 -8 17 -13 33 -10 36 5 5 46 -56 46 -69
0 -17 17 -6 28 17 9 19 8 32 -4 60 -26 63 2 71 34 10 17 -33 17 -33 40 -15 21
17 22 22 10 42 -34 59 -53 88 -59 88 -3 0 -15 -11 -27 -25z m-192 -149 c0 -2
-7 -7 -16 -10 -8 -3 -12 -2 -9 4 6 10 25 14 25 6z m-153 -98 c-3 -8 -6 -5 -6
6 -1 11 2 17 5 13 3 -3 4 -12 1 -19z m-112 -83 l6 -30 -15 25 c-17 28 -22 60
-7 45 5 -6 12 -23 16 -40z m-140 -5 c3 -5 1 -10 -4 -10 -6 0 -11 5 -11 10 0 6
2 10 4 10 3 0 8 -4 11 -10z"/>
<path d="M1245 820 c-4 -6 -3 -15 0 -20 4 -6 -3 -26 -15 -46 -12 -19 -21 -36
-19 -38 12 -10 51 -27 55 -24 2 2 17 30 34 61 l30 57 -28 6 c-15 3 -32 7 -39
9 -7 2 -15 0 -18 -5z"/>
<path d="M1338 779 c-10 -10 -16 -19 -13 -19 3 0 -1 -13 -10 -30 -18 -36 -19
-51 -2 -74 20 -28 57 -5 57 35 0 27 23 50 36 36 9 -9 -28 -111 -45 -123 -20
-16 -4 -54 32 -73 23 -12 29 -11 58 7 18 11 46 46 66 83 32 59 33 64 17 76
-22 16 -41 17 -47 1 -3 -8 -6 -7 -6 4 -1 9 -9 19 -20 23 -25 7 -56 36 -64 58
-8 22 -37 21 -59 -4z m100 -174 c-9 -20 -14 -23 -25 -13 -13 10 -12 14 3 25
27 20 35 16 22 -12z"/>
<path d="M1840 627 c-14 -7 -29 -22 -35 -34 -12 -29 -35 -38 -35 -15 0 25 -59
46 -93 33 -26 -10 -57 -47 -57 -67 0 -6 11 -23 25 -38 21 -23 31 -26 58 -21
17 4 43 19 56 33 l23 27 -6 -35 c-3 -19 -8 -45 -12 -57 -6 -20 -3 -23 24 -23
28 0 31 4 43 50 9 37 17 49 27 45 15 -5 42 11 42 25 0 4 -9 10 -20 13 -11 3
-20 11 -20 17 0 10 3 10 15 0 17 -14 31 -7 38 20 4 16 -1 23 -19 31 -30 11
-24 11 -54 -4z m-127 -78 c-3 -10 -9 -22 -14 -24 -13 -9 -20 12 -13 40 5 19 9
23 19 15 7 -6 11 -20 8 -31z"/>
<path d="M3457 603 c-11 -10 -8 -41 4 -48 16 -10 58 3 55 17 -5 33 -40 51 -59
31z"/>
<path d="M2090 554 c-94 -41 -138 -136 -89 -198 23 -30 68 -34 109 -11 35 20
43 18 30 -5 -6 -11 -19 -20 -28 -20 -19 0 -42 -18 -42 -32 0 -12 38 -10 63 4
26 14 38 28 72 91 l26 47 -30 0 c-20 0 -31 -5 -31 -14 0 -29 -78 -36 -104 -10
-9 8 -16 25 -16 37 0 21 39 87 52 87 3 0 27 -16 52 -35 44 -34 46 -34 57 -14
14 28 6 45 -33 69 -39 24 -43 24 -88 4z"/>
<path d="M3270 544 c-24 -21 -29 -34 -32 -77 -3 -45 -6 -52 -26 -55 -13 -2
-29 -16 -38 -33 l-15 -30 35 7 c45 8 46 0 4 -26 -36 -22 -93 -26 -148 -10 -36
10 -50 2 -50 -31 0 -24 60 -49 114 -49 38 0 52 5 81 33 19 17 42 48 53 67 12
22 27 36 43 38 25 4 59 29 59 44 0 4 -17 5 -39 2 l-38 -6 1 38 c1 34 4 39 26
42 36 3 50 -10 61 -59 11 -49 22 -59 62 -59 23 0 27 4 27 26 0 15 -8 33 -17
40 -17 11 -16 13 10 23 42 16 45 15 52 -29 7 -44 11 -46 50 -28 18 8 24 17 19
27 -3 9 -13 36 -22 61 -9 25 -18 47 -19 49 -1 2 -16 -7 -32 -19 -17 -12 -31
-17 -31 -11 0 14 -37 14 -45 1 -3 -5 -19 -10 -35 -10 -21 0 -29 6 -34 24 -9
35 -41 39 -76 10z"/>
<path d="M2396 488 c-3 -13 -6 -40 -6 -60 0 -45 -15 -50 -23 -9 -5 23 -13 30
-42 35 -84 16 -137 -76 -70 -120 32 -21 79 -10 105 23 l20 26 0 -25 c0 -14 9
-33 20 -43 19 -17 21 -17 40 0 18 16 20 16 26 1 8 -21 32 -21 56 1 17 15 18
15 18 -5 0 -15 6 -22 18 -21 43 1 47 11 50 112 l3 98 -28 -3 c-22 -2 -29 -9
-31 -30 -2 -19 -9 -28 -21 -28 -26 0 -61 -42 -61 -74 0 -18 -4 -26 -12 -23
-14 4 -15 46 -4 120 l8 47 -30 0 c-22 0 -31 -6 -36 -22z m-88 -104 l-4 -29
-11 25 c-12 28 -6 57 9 42 5 -5 8 -22 6 -38z m232 1 c0 -8 -4 -15 -10 -15 -5
0 -10 7 -10 15 0 8 5 15 10 15 6 0 10 -7 10 -15z"/>
<path d="M2643 423 c-31 -21 -33 -107 -4 -123 30 -15 56 -12 76 10 23 26 35
25 35 -1 0 -17 4 -20 23 -15 12 3 25 6 30 6 4 0 7 21 8 48 0 34 3 41 8 27 5
-11 6 -38 3 -59 l-5 -39 31 18 c25 15 31 25 34 64 4 48 -21 89 -45 74 -6 -4
-24 -6 -38 -5 -15 1 -34 -5 -43 -14 -9 -8 -16 -11 -16 -5 0 9 -16 16 -60 26
-8 2 -25 -3 -37 -12z m107 -73 c0 -5 -4 -10 -10 -10 -5 0 -10 5 -10 10 0 6 5
10 10 10 6 0 10 -4 10 -10z m-35 -10 c-3 -5 -12 -10 -18 -10 -7 0 -6 4 3 10
19 12 23 12 15 0z"/>
</g>
</svg>
